<?xml version="1.0" encoding="utf-8"?>
<!-- Generator: Adobe Illustrator 16.0.0, SVG Export Plug-In . SVG Version: 6.00 Build 0)  -->
<!DOCTYPE svg PUBLIC "-//W3C//DTD SVG 1.1//EN" "http://www.w3.org/Graphics/SVG/1.1/DTD/svg11.dtd">
<svg version="1.1" id="Layer_1" xmlns="http://www.w3.org/2000/svg" xmlns:xlink="http://www.w3.org/1999/xlink" x="0px" y="0px"
	 width="2000px" height="2000px" viewBox="0 0 2000 2000" enable-background="new 0 0 2000 2000" xml:space="preserve">
<g>
	<path fill="#010101" d="M1592.171,1941.018H409.238c-157.582,0-283.997-61.04-346.953-167.401
		c-62.986-106.451-55.614-246.578,20.139-384.64L691.761,278.202C769.254,136.896,878.95,59.018,1000.646,59.018
		c121.812,0,231.479,77.877,309.002,219.184l609.336,1110.833c75.754,138.003,83.097,278.101,20.14,384.552
		C1876.168,1879.978,1749.753,1941.018,1592.171,1941.018z M1000.675,247.327c-49.098,0-101.498,44.232-143.783,121.343
		L247.527,1479.505c-43.022,78.319-51.397,150.505-23.266,198.217c28.221,47.622,95.718,75.017,184.976,75.017h1182.933
		c89.26,0,156.758-27.395,184.977-75.017c28.133-47.712,19.757-119.868-23.266-198.13L1144.546,368.67
		C1102.26,291.529,1049.861,247.327,1000.675,247.327z"/>
</g>
<g>
	<g>
		<path fill="#010101" d="M888.061,1425.896c0-66.702,46.62-114.56,113.351-114.56s110.668,47.859,111.994,114.56
			c0,65.374-44.054,114.472-111.994,114.472C933.354,1540.367,888.061,1491.27,888.061,1425.896z M929.667,1248.408l-28.985-570.176
			h200.133l-27.66,570.176H929.667z"/>
	</g>
</g>
</svg>
