<?xml version="1.0" encoding="utf-8"?>
<!-- Generator: Adobe Illustrator 16.0.0, SVG Export Plug-In . SVG Version: 6.00 Build 0)  -->
<!DOCTYPE svg PUBLIC "-//W3C//DTD SVG 1.1//EN" "http://www.w3.org/Graphics/SVG/1.1/DTD/svg11.dtd">
<svg version="1.1" id="Layer_1" xmlns="http://www.w3.org/2000/svg" xmlns:xlink="http://www.w3.org/1999/xlink" x="0px" y="0px"
	 width="2000px" height="2000px" viewBox="0 0 2000 2000" enable-background="new 0 0 2000 2000" xml:space="preserve">
<path fill="#010101" d="M1328.391,58.417c-25.673-0.415-51.699,5.169-76.056,17.896c-14.614,7.636-27.796,17.562-38.987,28.761
	c-56.998,40.489-106.788,107.381-156.586,131.661c-0.3-0.393-0.32-0.896-0.64-1.278L1028,201.583
	c-7.271-8.707-18.328-12.582-28.76-11.504c-6.259,0.646-12.033,2.667-17.256,7.03l-20.452,17.256
	c-9.116-9.931-18.702-22.18-28.122-37.708c0,0,2.352,24.596,11.504,51.77L834.344,321.1l-245.425,99.704
	c-4.433-0.737-9.365-0.707-14.061,0l-345.13,51.769c-23.928,3.605-40.674,25.924-37.069,49.852l100.982,669.807
	c2.129,14.129,10.757,25.018,22.37,31.317v249.261c0.016,2.809,0.372,5.568,0.639,8.309c-0.218,2.55-0.639,5.062-0.639,7.669
	v421.825c0,18.149,15.085,32.596,33.234,32.596h109.291c18.149,0,32.596-14.446,32.596-32.596v-421.825
	c0-2.607-0.418-5.119-0.639-7.669c0.271-2.74,0.623-5.5,0.639-8.309v-265.878l41.543-6.392v268.435v0.639
	c0.015,2.689,0.393,5.043,0.639,7.67c-0.234,2.641-0.639,4.967-0.639,7.67v421.824c0,18.149,15.085,32.596,33.234,32.596h108.652
	c18.149,0,33.234-14.446,33.234-32.596v-421.824c0-2.703-0.402-5.029-0.639-7.67c0.25-2.627,0.625-4.98,0.639-7.67
	c0.001-0.168,0-0.47,0-0.639v-282.495c0-5.521-1.448-10.791-3.835-15.339c15.27-8.656,24.51-25.655,21.73-44.1l-91.395-607.812
	c84.822-34.881,145.625-53.339,210.273-82.448l-21.73,28.122c-11.261,14.233-8.481,34.757,5.752,46.017l201.326,159.143
	c5.219,4.128,10.667,6.99,16.617,8.948c0.611,0.71,1.264,1.231,1.918,1.917c20.38,21.389,53.465,22.597,75.416,3.196
	c0.518-0.459,1.412-0.158,1.918-0.639l128.465-122.713l68.387,437.164l-72.222,416.712h99.065c0.098,19.417-0.318,38.915,0,58.161
	c0.039,1.896,0.457,3.896,0.639,5.752c-0.523,3.422-1.254,6.659-1.278,10.226c-0.001,0.169,0,0.471,0,0.64v415.434
	c0,18.15,15.085,32.596,33.235,32.596h76.056c18.15,0,32.596-14.445,32.596-32.596v-415.434c0-0.169,0.001-0.471,0-0.64
	c-0.012-1.791-0.499-3.355-0.639-5.112c0.651-3.898,1.278-8.056,1.278-12.144c-0.199-18.81,0.096-37.908,0-56.883h54.325
	c0.099,19.417-0.317,38.915,0,58.161c0.2,9.708,2.729,19.11,6.392,27.482c0.461,2.779,0.476,5.533,1.278,8.309
	c0.046,0.161-0.048,0.478,0,0.639l118.239,398.178c5.161,17.4,22.864,26.892,40.265,21.73l73.5-21.73
	c17.4-5.162,26.892-22.865,21.73-40.266l-117.601-398.177c-0.047-0.161-0.591-0.479-0.639-0.64
	c-0.343-1.126-0.887-2.099-1.278-3.195c-0.165-16.715,0.085-33.649,0-50.491h97.787l-76.696-437.164h-1.917l-69.665-440.999
	l95.869,81.169l95.23,232.643c6.859,16.803,26.658,24.755,43.461,17.896l40.265-16.617c16.804-6.859,24.755-26.019,17.896-42.822
	l-97.147-237.756c-3.293-8.067-8.622-14.426-14.7-19.813c-2.811-4.959-6.419-9.393-10.864-13.421
	c-0.514-0.464-0.745-1.468-1.278-1.917l-199.408-167.452c-5.027-4.224-10.591-6.905-16.617-7.669
	c-7.619-3.552-16.603-5.255-25.565-3.835l-291.442,46.017c-11.295,1.789-20.287,8.347-26.844,16.618
	c-2.519,1.342-4.863,2.409-7.03,4.474l-155.947,148.917L896.34,424.638c-4.086-3.233-8.638-4.771-13.422-5.752
	c4.163-2.126,7.888-4.128,12.144-6.392c1.265-0.882,2.024-2.22,3.196-3.195l5.113-3.196c0.2-0.207,0.442-0.428,0.639-0.639
	l126.547-106.095c43.305,0.403,102.593-14.82,143.165-33.235c2.897,8.624,6.243,16.767,10.865,24.926
	c0.027,0.048-0.036,0.591,0,0.639c41.567,79.337,145.007,102.784,215.387,67.109c40.104-20.33,71.478-62.851,81.169-107.374
	c0.59,1.086,1.36,2.144,1.918,3.195c18.7,40.135,48.982,46.029,67.747,37.069c22.055-11.656,31.23-33.152,17.257-81.169
	c-13.901,19.24-28.12,43.598-38.348,33.234c-18.639-26.196-37.185-54.146-60.718-95.869c-0.635-1.305-1.241-2.541-1.917-3.835
	C1439.083,90.476,1384.87,59.329,1328.391,58.417z M367.142,99.322c-5.529,0.268-11.027,1.075-16.618,1.917
	c-89.455,13.478-151.53,97.17-138.052,186.625s97.17,150.89,186.625,137.413s150.891-97.17,137.413-186.625
	C523.875,154.788,450.066,95.31,367.142,99.322z M137.822,497.243L95,503.635c-17.947,2.704-30.187,19.123-27.482,37.069
	l42.821,285.69v1.917c0.522,2.94,1.599,5.574,2.557,8.309c-0.056,2.446-0.283,4.538,0,7.03c0.076,0.669,0.538,1.247,0.639,1.917
	l41.543,278.66c2.704,17.946,19.123,30.187,37.069,27.482l43.461-6.392c17.946-2.704,30.186-19.762,27.482-37.708L220.909,829.59
	c-0.103-0.671,0.124-1.256,0-1.917c-0.343-1.825-1.402-3.366-1.917-5.113c0.267-3.541-0.186-7.213-0.639-10.865
	c-0.059-0.48,0.074-0.797,0-1.278l-43.46-285.691C172.188,506.779,155.769,494.539,137.822,497.243z"/>
</svg>
