<?xml version="1.0" encoding="utf-8"?>
<!-- Generator: Adobe Illustrator 16.0.0, SVG Export Plug-In . SVG Version: 6.00 Build 0)  -->
<!DOCTYPE svg PUBLIC "-//W3C//DTD SVG 1.1//EN" "http://www.w3.org/Graphics/SVG/1.1/DTD/svg11.dtd">
<svg version="1.1" id="Layer_1" xmlns="http://www.w3.org/2000/svg" xmlns:xlink="http://www.w3.org/1999/xlink" x="0px" y="0px"
	 width="2000px" height="2000px" viewBox="0 0 2000 2000" enable-background="new 0 0 2000 2000" xml:space="preserve">
<g>
	<path fill="#010101" d="M487.716,807.519c0-389.783,315.981-705.765,705.765-705.765c389.783,0,705.765,315.981,705.765,705.765
		s-315.981,705.765-705.765,705.765c-129.026,0-249.965-34.624-354.035-95.088l-480.051,480.051
		c-141.739,0-256.642-114.902-256.642-256.642l480.05-480.051C522.341,1057.483,487.716,936.545,487.716,807.519z M1642.604,807.519
		c0-248.044-201.079-449.123-449.123-449.123S744.358,559.475,744.358,807.519s201.079,449.123,449.123,449.123
		S1642.604,1055.562,1642.604,807.519z"/>
</g>
</svg>
