<?xml version="1.0" encoding="utf-8"?>
<!-- Generator: Adobe Illustrator 16.0.0, SVG Export Plug-In . SVG Version: 6.00 Build 0)  -->
<!DOCTYPE svg PUBLIC "-//W3C//DTD SVG 1.1//EN" "http://www.w3.org/Graphics/SVG/1.1/DTD/svg11.dtd">
<svg version="1.1" id="Layer_1" xmlns="http://www.w3.org/2000/svg" xmlns:xlink="http://www.w3.org/1999/xlink" x="0px" y="0px"
	 width="2000px" height="2000px" viewBox="0 0 2000 2000" enable-background="new 0 0 2000 2000" xml:space="preserve">
<path fill="#010101" d="M653.214,602.489h1187.438c66.866,0,119.897-53.031,119.897-119.896
	c0-66.866-53.031-119.897-119.897-119.897H653.214c-66.865,0-119.896,53.031-119.896,119.897
	C533.319,549.458,586.35,602.489,653.214,602.489z"/>
<path fill="#010101" d="M1840.652,911.454H653.214c-66.865,0-119.896,53.031-119.896,119.897s53.031,119.897,119.896,119.897
	h1187.438c66.866,0,119.897-53.031,119.897-119.897S1907.519,911.454,1840.652,911.454z"/>
<path fill="#010101" d="M1840.652,1462.518H653.214c-66.865,0-119.896,53.031-119.896,119.897
	c0,66.864,53.031,119.896,119.896,119.896h1187.438c66.866,0,119.897-53.031,119.897-119.896
	C1960.55,1515.549,1907.519,1462.518,1840.652,1462.518z"/>
<path fill="#010101" d="M438.784,288.913l-62.254-50.725c-6.917-4.612-16.139-4.612-20.75,2.306L185.156,450.312l-66.865-59.948
	c-6.918-4.612-16.14-4.612-20.751,0l-53.031,59.948c-4.612,6.917-4.612,16.14,0,20.752l142.954,129.119
	c6.917,4.612,16.139,4.612,20.75-2.305l50.726-62.254l0,0l184.456-228.265C448.007,305.053,445.701,295.831,438.784,288.913z"/>
<path fill="#010101" d="M438.784,1452.142l-62.254-50.724c-6.917-4.613-16.139-4.613-20.75,2.305l-170.623,209.818l-66.865-59.947
	c-6.918-4.611-16.14-4.611-20.751,0l-53.031,59.947c-4.612,6.919-4.612,16.141,0,20.752l142.954,129.119
	c6.917,4.611,16.139,4.611,20.75-2.305l50.726-62.255l0,0l184.456-228.264C448.007,1468.282,445.701,1459.061,438.784,1452.142z"/>
<path fill="#010101" d="M314.277,1010.599l76.088-76.088c6.917-6.917,6.917-20.75,0-29.974l-43.809-43.809
	c-6.917-6.917-20.75-6.917-29.974,0l-76.088,76.089l-76.088-76.089c-6.918-6.917-20.752-6.917-29.975,0l-43.808,43.809
	c-6.917,6.917-6.917,20.752,0,29.974l76.088,76.088l-76.088,76.089c-6.917,6.918-6.917,20.751,0,29.975l43.808,43.808
	c6.918,6.918,20.752,6.918,29.975,0l76.088-76.088l76.088,76.088c6.917,6.918,20.752,6.918,29.974,0l43.809-43.808
	c6.917-6.917,6.917-20.752,0-29.975L314.277,1010.599z"/>
</svg>
