<?xml version="1.0" encoding="utf-8"?>
<!-- Generator: Adobe Illustrator 16.0.0, SVG Export Plug-In . SVG Version: 6.00 Build 0)  -->
<!DOCTYPE svg PUBLIC "-//W3C//DTD SVG 1.1//EN" "http://www.w3.org/Graphics/SVG/1.1/DTD/svg11.dtd">
<svg version="1.1" id="Layer_1" xmlns="http://www.w3.org/2000/svg" xmlns:xlink="http://www.w3.org/1999/xlink" x="0px" y="0px"
	 width="2000px" height="2000px" viewBox="0 0 2000 2000" enable-background="new 0 0 2000 2000" xml:space="preserve">
<g>
	<path fill="#010101" d="M1023.227,897.237h-44.383c-114.851,0-207.798-136.037-249.779-269.463
		c-16.565-10.511-29.388-29.18-34.979-52.746c-0.024-0.116-0.046-0.231-0.069-0.347c-8.503-13.17-14.925-28.441-18.808-44.753
		c-9.403-39.947-2.657-78.461,16.358-103.944l-12.961-66.032c0-210.177,120.534-335.632,322.416-335.632
		c201.838,0,322.349,125.478,322.349,335.632l-0.855,8.248l-12.037,57.784c18.991,25.46,25.715,63.951,16.334,103.806
		c-3.835,16.403-10.281,31.791-18.876,45.053c-0.022,0.138-0.069,0.3-0.092,0.438c-5.453,23.382-18.253,42.003-34.864,52.492
		C1230.977,761.223,1138.054,897.237,1023.227,897.237z M801.034,585.979c35.141,127.048,114.897,230.394,177.81,230.394h44.383
		c62.912,0,142.668-103.368,177.809-230.417l8.849-31.999c0,0,4.344,0.324,9.75,0.74c5.36,0.392,10.119-2.056,10.604-5.5
		l0.901-6.237l6.699-8.918c4.529-5.8,8.179-13.886,10.235-22.689c4.806-20.401-0.276-34.563-2.564-37.128l-26.823-14.231
		l8.04-28.441l15.78-75.62c-0.901-95.558-34.31-250.702-241.46-250.702c-207.174,0-240.628,155.12-241.531,250.679l22.088,105.377
		l-26.87,14.255c-0.485,1.317-5.614,15.434-0.808,35.789c2.079,8.78,5.776,16.89,10.327,22.734l7.718,9.888
		c0,0,0.161,2.588,0.345,5.776c0.185,3.188,5.129,5.407,11.044,4.991l10.697-0.808L801.034,585.979z"/>
	<path fill="#010101" d="M364.691,1817.193c-0.438,0-0.877,0-1.317-0.022c-22.317-0.694-39.831-19.384-39.115-41.702l17.005-533.496
		c1.709-52.7,37.683-111.824,83.729-137.562l320.708-191.347c17.998-10.05,37.498-10.373,53.139-1.433
		c15.688,8.919,25.369,25.854,25.876,45.238c0.601,22.319-17.003,40.917-39.346,41.496c-6.515,0.278-12.845-1.226-18.391-3.882
		l-301.554,179.957c-22.364,12.522-42.558,45.701-43.343,70.145l-17.004,533.473
		C404.384,1799.935,386.433,1817.193,364.691,1817.193z"/>
	<path fill="#010101" d="M1111.299,1811.417c-17.098,0-32-12.66-34.31-30.081l-79.155-593.912l-79.2,593.912
		c-2.541,18.968-20.1,32.253-38.93,29.781c-18.968-2.541-32.299-19.963-29.781-38.953l87.147-653.614l-25.807-42.788
		c-16.796-27.863-17.974-65.569-2.817-89.667l7.532-11.899c12.222-19.315,37.359-27.355,56.605-26.639
		c9.056,0.3,17.974,0.44,18.089,0.44h14.902c-0.23,0,8.596-0.14,17.604-0.44c19.017-0.601,44.314,7.347,56.583,26.777l7.463,11.737
		c15.225,24.007,14.07,61.735-2.772,89.668l-25.9,42.835l87.126,653.59c2.518,18.968-10.812,36.388-29.781,38.953
		C1114.371,1811.324,1112.847,1811.417,1111.299,1811.417z M971.034,1016.893l-3.974,6.262c-0.463,1.778-0.116,10.72,3.58,16.843
		l27.193,45.099l27.333-45.191c3.649-6.076,4.043-14.926,3.026-17.721l-3.28-5.037c-10.305,0.047-18.807,0.162-18.807,0.162h-15.919
		C989.702,1017.332,980.575,1017.193,971.034,1016.893z"/>
	<path fill="#010101" d="M1637.286,1817.193c-21.72,0-39.693-17.259-40.387-39.138l-17.051-533.495
		c-0.763-24.468-20.933-57.6-42.327-69.567l-302.57-180.465c-5.545,2.634-11.853,4.021-18.367,3.858
		c-22.319-0.601-39.947-19.177-39.322-41.496c0.508-19.406,10.164-36.318,25.852-45.236c15.666-8.919,35.142-8.619,52.124,0.854
		l322.74,192.502c45.052,25.185,81.025,84.307,82.689,137.007l17.051,533.496c0.716,22.318-16.82,40.963-39.116,41.702
		C1638.163,1817.193,1637.724,1817.193,1637.286,1817.193z"/>
	<path fill="#010101" d="M1832.745,1975.664H169.254c-25.507,0-46.208-20.701-46.208-46.208s20.701-46.208,46.208-46.208h1663.491
		c25.507,0,46.208,20.701,46.208,46.208S1858.252,1975.664,1832.745,1975.664z"/>
</g>
</svg>
