<?xml version="1.0" encoding="utf-8"?>
<!-- Generator: Adobe Illustrator 16.0.0, SVG Export Plug-In . SVG Version: 6.00 Build 0)  -->
<!DOCTYPE svg PUBLIC "-//W3C//DTD SVG 1.1//EN" "http://www.w3.org/Graphics/SVG/1.1/DTD/svg11.dtd">
<svg version="1.1" id="Layer_1" xmlns="http://www.w3.org/2000/svg" xmlns:xlink="http://www.w3.org/1999/xlink" x="0px" y="0px"
	 width="2000px" height="2000px" viewBox="0 0 2000 2000" enable-background="new 0 0 2000 2000" xml:space="preserve">
<rect x="228.461" y="1884.354" fill="#010101" width="1545.078" height="81.32"/>
<path fill="#010101" d="M1122.979,522.246c0,0-20.329,0-20.329-20.33v-60.99c0-56.131-45.498-101.65-101.65-101.65
	c-56.131,0-101.63,45.519-101.63,101.65h-0.02v60.99c0,0,0,20.33-20.33,20.33h-20.33v40.66h284.619v-40.66H1122.979z"/>
<circle fill="#010101" cx="1001" cy="318.946" r="20.33"/>
<path fill="#010101" d="M1001,623.896c22.464,0,40.66-18.196,40.66-40.66h-81.32C960.34,605.7,978.536,623.896,1001,623.896z"/>
<path fill="#010101" d="M1265.29,625.197V318.946h121.96L1001,34.326l-386.25,284.62h121.96v306.251L45.491,1152.475h264.29v691.22
	h528.58v-467.59c0-89.838,72.822-162.64,162.64-162.64s162.64,72.802,162.64,162.64v467.59h528.579v-691.22h264.29L1265.29,625.197z
	 M696.05,1701.384H452.091v-81.319H696.05V1701.384z M696.05,1579.404H452.091v-203.3H696.05V1579.404z M1001,1091.484
	c-78.575,0-142.31-63.754-142.31-142.31c0-78.596,63.734-142.31,142.31-142.31c78.616,0,142.31,63.714,142.31,142.31
	C1143.31,1027.73,1079.616,1091.484,1001,1091.484z M1183.97,644.226H818.03v-223.63h1.2c10.124-91.485,87.623-162.64,181.77-162.64
	c94.188,0,171.646,71.175,181.77,162.64h1.2V644.226z M1549.909,1701.384h-243.96v-81.319h243.96V1701.384z M1549.909,1579.404
	h-243.96v-203.3h243.96V1579.404z"/>
<path fill="#010101" d="M1001,969.505h-60.99c-11.222,0-20.33-9.088-20.33-20.33c0-11.242,9.108-20.33,20.33-20.33h40.66v-81.32
	c0-11.242,9.108-20.33,20.33-20.33c11.223,0,20.33,9.088,20.33,20.33v101.649C1021.33,960.417,1012.223,969.505,1001,969.505z"/>
</svg>
