<?xml version="1.0" encoding="utf-8"?>
<!-- Generator: Adobe Illustrator 16.0.0, SVG Export Plug-In . SVG Version: 6.00 Build 0)  -->
<!DOCTYPE svg PUBLIC "-//W3C//DTD SVG 1.1//EN" "http://www.w3.org/Graphics/SVG/1.1/DTD/svg11.dtd">
<svg version="1.1" id="Layer_1" xmlns="http://www.w3.org/2000/svg" xmlns:xlink="http://www.w3.org/1999/xlink" x="0px" y="0px"
	 width="2000px" height="2000px" viewBox="0 0 2000 2000" enable-background="new 0 0 2000 2000" xml:space="preserve">
<g>
	<rect x="-53.75" y="-53.75" fill="none" width="2109.492" height="2109.492"/>
	<g>
		<path fill="#010101" d="M232.928,1172.017h-39.851c-5.279,0-9.646,4.368-9.646,9.69v94.837c0,5.323,4.367,9.69,9.646,9.69h39.851
			c5.323,0,9.646-4.367,9.646-9.69v-94.837C242.573,1176.385,238.25,1172.017,232.928,1172.017z M351.779,1172.017h-39.851
			c-5.268,0-9.635,4.368-9.635,9.69v94.837c0,5.323,4.367,9.69,9.635,9.69h39.851c5.334,0,9.646-4.367,9.646-9.69v-94.837
			C361.425,1176.385,357.113,1172.017,351.779,1172.017z M1650.957,1286.234h39.852c5.334,0,9.59-4.367,9.59-9.69v-94.837
			c0-5.322-4.256-9.69-9.59-9.69h-39.852c-5.322,0-9.689,4.368-9.689,9.69v94.837
			C1641.268,1281.867,1645.635,1286.234,1650.957,1286.234z M470.642,1172.017h-39.851c-5.279,0-9.646,4.368-9.646,9.69v94.837
			c0,5.323,4.367,9.69,9.646,9.69h39.851c5.323,0,9.646-4.367,9.646-9.69v-94.837
			C480.288,1176.385,475.92,1172.017,470.642,1172.017z M1769.765,1286.234h39.851c5.323,0,9.69-4.367,9.69-9.69v-94.837
			c0-5.322-4.367-9.69-9.69-9.69h-39.851c-5.223,0-9.591,4.368-9.591,9.69v94.837
			C1760.174,1281.867,1764.542,1286.234,1769.765,1286.234z M1532.05,1286.234h39.851c5.323,0,9.69-4.367,9.69-9.69v-94.837
			c0-5.322-4.367-9.69-9.69-9.69h-39.851c-5.223,0-9.59,4.368-9.59,9.69v94.837
			C1522.46,1281.867,1526.827,1286.234,1532.05,1286.234z M1268.332,1139.09c5.223,0,9.59-4.367,9.59-9.591v-94.937
			c0-5.323-4.367-9.701-9.59-9.701h-108.039c-5.323,0-9.701,4.378-9.701,9.701v94.937c0,5.224,4.378,9.591,9.701,9.591H1268.332z
			 M1281.334,346.567v-75.178c0-9.957-4.367-18.169-9.69-18.169h-200.742v111.562h200.742
			C1276.967,364.781,1281.334,356.58,1281.334,346.567z M1949.726,995.134c5.335,0,9.591-4.312,9.591-9.635v-39.851
			c0-5.278-4.256-9.646-9.591-9.646h-515.49c-2.022-5.968-4.479-11.724-7.568-17.103c0.856,0.211,1.712,0.322,2.667,0.322
			c2.346,0,4.69-0.855,6.501-2.667l28.238-28.182c3.723-3.723,3.723-9.857,0-13.635l-3.2-3.145l0.11-0.056l-359.722-360.033
			c-9.057-9.479-19.281-17.314-30.36-23.493v81.19l309.203,309.37c-10.435-4.045-21.736-6.39-33.561-6.39h-64.255l-203.62-203.787
			c-2.444-2.6-5.111-4.945-7.768-7.19v87.48l185.606,185.717h90.036c16.514,0,29.838,13.369,29.838,29.894v568.921
			c0,16.525-13.324,29.949-29.838,29.949h-300.368V257.487c0-5.278-4.257-9.646-9.591-9.646h-39.851
			c-5.268,0-9.646,4.368-9.646,9.646V472.82c-28.227,4.056-55.72,16.891-77.457,38.739l-2.078,2.078l0,0L546.776,874.793
			c-3.734,3.723-3.734,9.857,0,13.636l28.126,28.126c0.422,0.378,0.856,0.589,1.334,0.856c-3.467,5.801-6.346,12.035-8.479,18.592
			H52.266c-5.267,0-9.646,4.367-9.646,9.646v39.851c0,5.379,4.378,9.635,9.646,9.635H563.29v62.021
			c-2.611-0.322-5.112-0.744-7.834-0.744H112.998c-38.784,0-70.111,31.427-70.211,70.211v334.252
			c0.1,38.783,31.427,70.222,70.211,70.222h442.457c2.667,0,5.223-0.434,7.779-0.756v2.989
			c0.056,50.819,41.284,92.059,92.214,92.059h260.785v-62.221H655.448c-16.558,0-29.938-13.324-29.938-29.838v-70.967
			c0-0.533,0.167-0.955,0.167-1.488v-334.352c0-0.434-0.167-0.756-0.167-1.179V964.34c0-16.569,13.38-29.882,29.938-29.882h116.462
			l9.113-9.168l206.121-206.332v976.117H842.766c-5.323,0-9.69,4.257-9.69,9.591v39.851c0,5.323,4.367,9.59,9.69,9.59h334.996
			c5.335,0,9.702-4.267,9.702-9.59v-39.851c0-5.334-4.367-9.591-9.702-9.591h-131.476v-69.688h300.258
			c50.93,0,92.17-41.239,92.17-92.17v-2.878c2.655,0.223,5.323,0.756,8.09,0.756h442.401c38.784,0,70.223-31.438,70.223-70.222
			v-334.252c0-38.784-31.438-70.211-70.223-70.211h-442.501c-2.768,0-5.335,0.422-7.99,0.744v-62.021H1949.726L1949.726,995.134z
			 M563.234,1461.617c-0.322,4.057-3.623,7.245-7.779,7.245H112.998c-4.368,0-7.935-3.622-7.935-7.989v-334.352
			c0-4.379,3.567-7.891,7.935-7.891h442.457c4.156,0,7.457,3.2,7.779,7.246V1461.617z M987.088,646.08
			c-13.635,4.312-26.637,11.502-37.45,22.314L746.129,872.182h-90.681c-7.023,0-13.847,0.845-20.447,2.345l318.693-319.016
			c9.635-9.702,21.248-15.825,33.394-19.125V646.08z M1438.714,1126.621c0-4.479,3.622-7.99,7.99-7.99h442.401
			c4.467,0,7.99,3.623,7.99,7.99v334.252c0,4.479-3.523,7.989-7.99,7.989h-442.401c-4.368,0-7.99-3.511-7.99-7.989V1126.621z
			 M739.039,1024.861c-5.323,0-9.69,4.378-9.69,9.701v94.937c0,5.224,4.367,9.591,9.69,9.591h107.994
			c5.323,0,9.646-4.367,9.646-9.591v-94.937c0-5.323-4.323-9.701-9.646-9.701H739.039z"/>
	</g>
</g>
</svg>
