<?xml version="1.0" encoding="utf-8"?>
<!-- Generator: Adobe Illustrator 16.0.0, SVG Export Plug-In . SVG Version: 6.00 Build 0)  -->
<!DOCTYPE svg PUBLIC "-//W3C//DTD SVG 1.1//EN" "http://www.w3.org/Graphics/SVG/1.1/DTD/svg11.dtd">
<svg version="1.1" id="Layer_1" xmlns="http://www.w3.org/2000/svg" xmlns:xlink="http://www.w3.org/1999/xlink" x="0px" y="0px"
	 width="2000px" height="2000px" viewBox="0 0 2000 2000" enable-background="new 0 0 2000 2000" xml:space="preserve">
<g>
	<path d="M47.465,1751.682c0-501.122,0-1002.241,0-1503.363c0.854-2.294,2.138-4.523,2.499-6.895
		c11.904-78.283,51.279-137.109,123.877-170.855c21.691-10.081,45.535-15.531,68.392-23.104c505.179,0,1010.356,0,1515.535,0
		c3.353,1.011,6.643,2.321,10.062,2.984c67.104,13.017,120.458,46.986,153.619,107.242c13.885,25.229,20.931,54.22,31.086,81.499
		c0,507.208,0,1014.413,0,1521.621c-1.088,3.261-2.496,6.452-3.216,9.79c-14.678,68.128-49.833,122.048-112.272,154.804
		c-22.852,11.992-48.707,18.254-73.193,27.131c-509.237,0-1018.471,0-1527.708,0c-2.736-1.072-5.387-2.526-8.222-3.159
		c-66.079-14.729-119.178-49.016-150.935-109.328C62.709,1812.93,57.04,1781.275,47.465,1751.682z M267.17,854.635
		c0,7.911,0,13.914,0,19.915c-0.002,257.13-0.012,514.263,0.044,771.397c0.001,7.591,0.059,15.281,1.214,22.753
		c4.163,26.964,17.589,48.205,43.708,57.492c14.401,5.12,30.668,6.912,46.097,6.927c426.525,0.354,853.052,0.288,1279.575,0.256
		c8.619,0,17.348,0.298,25.817-0.951c8.922-1.311,18.078-3.197,26.293-6.77c35.701-15.525,43.58-46.24,43.565-81.342
		c-0.099-257.639-0.051-515.28-0.051-772.918c0-5.406,0-10.809,0-16.732c-55.881,0-109.866,0-166.281,0
		c29.335,116.921,24.836,231.286-15.736,343.596c-40.707,112.692-109.233,204.638-206.329,275.208
		c-96.641,70.238-204.705,108.633-323.876,112.282c-166.848,5.105-313.004-49.503-430.832-167.581
		c-156.474-156.804-205.422-347.068-158.35-563.531C376.56,854.635,323.022,854.635,267.17,854.635z M1000.803,1366.464
		c203.499-1.12,366.77-165.247,365.629-367.546c-1.147-202.322-164.986-365.347-366.782-364.951
		c-202.229,0.398-367.546,166.555-365.69,367.549C635.833,1204.438,799.813,1367.57,1000.803,1366.464z M1367.229,450.374
		c0,35.476-0.398,70.955,0.101,106.421c0.657,46.564,26.058,75.002,72.532,76.081c72.932,1.697,145.954,1.664,218.888,0.039
		c47.622-1.064,74.221-30.299,74.568-77.978c0.505-69.424,0.521-138.857,0.015-208.281c-0.359-49.361-30.845-79.288-80.218-79.478
		c-68.919-0.271-137.843-0.297-206.762,0.006c-49.316,0.22-78.501,29.223-79.041,78.289
		C1366.925,380.438,1367.234,415.409,1367.229,450.374z"/>
</g>
</svg>
