<?xml version="1.0" encoding="utf-8"?>
<!-- Generator: Adobe Illustrator 16.0.0, SVG Export Plug-In . SVG Version: 6.00 Build 0)  -->
<!DOCTYPE svg PUBLIC "-//W3C//DTD SVG 1.1//EN" "http://www.w3.org/Graphics/SVG/1.1/DTD/svg11.dtd">
<svg version="1.1" id="Layer_1" xmlns="http://www.w3.org/2000/svg" xmlns:xlink="http://www.w3.org/1999/xlink" x="0px" y="0px"
	 width="2000px" height="2000px" viewBox="0 0 2000 2000" enable-background="new 0 0 2000 2000" xml:space="preserve">
<g>
	<g>
		<path fill="#010101" d="M1943.022,641.826c-2.059-77.387-33.519-141.396-116.218-178.461
			c-33.516-14.974-67.998-23.039-104.539-22.324c-30.492,0.672-61.11,0.735-91.624-0.609c-15.75-0.671-24.529,7.224-31.795,20.581
			c-16.989,31.124-34.294,62.014-51.64,92.927c-2.33,4.158-5.376,7.875-8.547,11.382c-4.873,5.313-7.875,5.04-12.033-2.437
			c-19.427-35.448-40.573-69.784-59.201-105.61c-5.858-11.425-11.97-16.485-23.393-16.254c-43.829,0.714-88.603-4.557-131.422,3.003
			c-89.356,15.687-171.405,67.558-185.223,194.316c-1.723,15.918-5.104,18.312-17.179,9.639
			c-27.195-19.468-54.538-38.767-80.62-59.851c-24.004-19.467-49.876-18.648-75.539-9.661c-10.375,3.675-16.884,4.158-25.306-2.373
			c-8.778-6.783-18.669-11.865-27.616-18.417c-61.741-45.382-123.377-90.932-185.034-136.418
			c-46.306-34.167-92.59-68.272-138.792-102.629c-13.419-9.934-18.858-9.765-27.636,2.058c-8.421,11.424-7.434,17.703,6.468,28.959
			c14.806,11.97,30.031,23.415,45.36,34.671c70.184,51.304,140.472,102.524,210.74,153.786
			c28.287,20.58,56.469,41.372,85.009,61.531c12.223,8.589,18.375,17.41,14.89,35.175c-7.225,36.898,6.215,65.395,35.448,86.312
			c68.797,49.373,137.299,99.079,205.635,149.228c30.976,22.744,80.495,20.308,101.536-4.998
			c14.365-17.304,19.362-35.994,19.405-57.646c0.126-36.33-0.441-72.725,0.357-109.055c0.104-7.372,3.527-19.866,7.645-20.958
			c9.995-2.772,21.419-1.051,32.004,0.609c2.162,0.336,4.326,8.273,4.725,12.873c0.776,10.102,0.546,20.307,0.546,30.451
			c-0.062,413.54-0.23,666.068-0.105,1079.629c0,25.937-1.848,52.039,10.186,76.819c21.189,43.429,55.378,60.649,98.303,56.323
			c38.389-3.907,65.584-26.418,81.104-66.109c7.057-18.039,8.127-35.743,8.127-54.223c0.042-263.828,0.042-366.688,0.042-630.557
			c0-7.604,0.168-15.227,0.062-22.808c-0.104-12.264,1.934-21.65,16.507-21.378c16.107,0.356,20.917,4.326,21.925,21.924
			c0.336,5.923,0.062,11.865,0.062,17.809c0,266.39,0.126,371.749-0.188,638.139c-0.042,41.16,10.163,77.281,43.429,100.36
			c54.265,37.485,126.002,17.808,150.908-55.315c5.124-15.162,3.171-33.454,3.213-50.274c0.105-158.153,0-123.083-0.042-281.258
			c-0.083-49.035,0-130.266-0.083-179.364c0-214.813,0-429.604,0-644.396c0-3.38,0.23-6.824-0.105-10.143
			c-1.428-15.037,4.221-21.631,18.648-21.253c18.186,0.4,21.525,2.332,22.323,20.476c0.588,14.385,0.168,28.749,0.168,43.113
			c0,115.061,0.168,230.059-0.231,345.036c-0.042,22.933,5.376,42.841,18.376,61.09c31.081,43.724,94.291,35.448,117.77-7.161
			c8.359-15.225,13.671-34.734,13.776-52.311C1944.681,937.805,1946.97,789.668,1943.022,641.826z M1138.309,916.7
			c-11.781-8.274-23.08-17.305-34.902-25.389c-10.753-7.435-15.415-5.545-16.905,8.105c-1.45,13.356-1.239,27.007-0.841,40.488
			c0.399,13.756-4.619,20.75-17.808,20.076c-6.279-0.272-12.517,0.042-18.796,0.042c-293.123,0-586.247,0-879.37,0
			c-4.704,0-9.408-0.335-14.09-0.105c-12.201,0.673-16.864-6.426-16.801-18.585c0.042-11.865,0-23.688,0-35.554
			c0.022-208.869,0.042-417.739,0.042-626.65c0-4.221-0.021-8.442,0-12.664c0.168-32.676,0.168-32.781,29.716-32.781
			c295.454,0,590.929,0,886.383,0.063c3.171,0,6.301-0.105,9.388,0.042c19.236,0.882,20.958,2.373,21.042,24.066
			c0.273,60.901,0.147,121.759,0.147,182.682c0,25.348-0.336,50.757,0.336,76.105c0.23,8.106,1.386,17.326,5.229,23.982
			c3.15,5.482,10.585,10.081,16.654,10.92c2.876,0.399,7.076-8.694,10.415-13.756c12.874-19.971,24.948-40.593,38.662-59.851
			c8.506-11.991,12.601-23.793,12.495-39.103c-0.735-79.508-0.335-158.993-0.44-238.48c-0.105-39.229-16.191-56.701-53.068-56.764
			c-168.486-0.167-336.993-0.105-505.5-0.105c-166.911,0-333.864,0.336-500.795-0.399c-25.243-0.105-42.505,9.156-50.653,35.092
			c-2.457,7.707-3.57,16.296-3.57,24.507c-0.231,262.169,0,524.337-0.525,786.464c-0.042,38.493,24.654,61.656,56.196,61.53
			c330.735-0.839,661.469-0.398,992.205-0.735c13.566-0.041,28.015-2.54,40.553-7.916c8.421-3.675,18.312-13.44,20.181-22.261
			c4.242-19.299,3.801-39.775,5.061-59.81C1170.522,935.852,1153.282,927.305,1138.309,916.7z M1537.944,409.792
			c86.25-0.062,167.898-77.617,163.489-181.737c-0.421-110.714-75.791-176.845-166.092-178.125
			c-81.104-1.177-163.047,62.518-164.475,180.834C1369.648,332.658,1449.136,409.835,1537.944,409.792z"/>
	</g>
</g>
</svg>
