<?xml version="1.0" encoding="utf-8"?>
<!-- Generator: Adobe Illustrator 16.0.0, SVG Export Plug-In . SVG Version: 6.00 Build 0)  -->
<!DOCTYPE svg PUBLIC "-//W3C//DTD SVG 1.1//EN" "http://www.w3.org/Graphics/SVG/1.1/DTD/svg11.dtd">
<svg version="1.1" id="Layer_1" xmlns="http://www.w3.org/2000/svg" xmlns:xlink="http://www.w3.org/1999/xlink" x="0px" y="0px"
	 width="2000px" height="2000px" viewBox="0 0 2000 2000" enable-background="new 0 0 2000 2000" xml:space="preserve">
<path fill="#010101" d="M1925.481,351.643l-130.156,130.066c-15.147,15.375-40.01,15.375-55.384,0l-220.167-220.167
	c-15.467-15.375-15.467-40.238,0-55.612l130.064-130.157c34.49-34.489,90.284-34.489,124.819,0l150.823,150.961
	C1959.836,261.268,1959.836,317.062,1925.481,351.643z M1692.77,573.818l-720.084,720.585
	c-15.192,25.729-40.009,25.729-55.384,10.492l-220.213-220.213c-15.328-15.466-15.328-40.237,0-55.612l720.084-720.494
	c15.375-15.237,40.055-15.237,55.43,0l220.168,220.305C1708.189,544.209,1708.189,569.118,1692.77,573.818z M850.466,1396.093
	l-312.414,107.073l-5.794,2.007c-9.534,2.189-19.981-0.456-27.463-7.893c-7.437-7.482-10.037-17.884-7.71-27.464l1.916-5.748
	l107.026-312.597l1.963-5.794c1.277-3.057,3.375-5.977,5.793-8.485c11.452-11.45,30.202-11.45,41.697,0l209.265,209.355
	c11.405,11.588,11.405,30.11,0,41.607c-2.601,2.645-5.338,4.562-8.44,5.884L850.466,1396.093z M1062.787,380.019H240.192v1382.001
	h1382.001V939.425c0-54.563,44.252-98.725,98.723-98.725c54.473,0,98.725,44.162,98.725,98.725v921.364
	c0,13.641-2.782,26.598-7.802,38.459c-14.963,35.356-50.091,60.266-90.923,60.266l0,0H141.467
	c-54.517,0-98.723-44.254-98.723-98.725V281.341c0-54.518,44.207-98.724,98.723-98.724h921.32c54.471,0,98.724,44.207,98.724,98.724
	C1161.511,335.812,1117.304,380.019,1062.787,380.019z"/>
</svg>
