<?xml version="1.0" encoding="utf-8"?>
<!-- Generator: Adobe Illustrator 16.0.0, SVG Export Plug-In . SVG Version: 6.00 Build 0)  -->
<!DOCTYPE svg PUBLIC "-//W3C//DTD SVG 1.1//EN" "http://www.w3.org/Graphics/SVG/1.1/DTD/svg11.dtd">
<svg version="1.1" id="Layer_1" xmlns="http://www.w3.org/2000/svg" xmlns:xlink="http://www.w3.org/1999/xlink" x="0px" y="0px"
	 width="2000px" height="2000px" viewBox="0 0 2000 2000" enable-background="new 0 0 2000 2000" xml:space="preserve">
<path fill="#010101" d="M1980.167,1001c0-540.684-438.423-979.167-979.167-979.167S21.833,460.255,21.833,1001
	S460.255,1980.167,1001,1980.167S1980.167,1541.684,1980.167,1001z M788.949,1457.291c-45.653-45.653-45.653-119.519,0-165.173
	l293.811-290.445L788.949,711.228c-45.653-45.653-45.653-119.52,0-165.173c46.144-45.408,120.744-45.653,166.886,0L1332.57,919.24
	c45.654,45.409,45.654,119.519,0,165.112l-376.735,372.939C909.693,1502.945,835.093,1502.945,788.949,1457.291z"/>
</svg>
