<?xml version="1.0" encoding="utf-8"?>
<!-- Generator: Adobe Illustrator 16.0.0, SVG Export Plug-In . SVG Version: 6.00 Build 0)  -->
<!DOCTYPE svg PUBLIC "-//W3C//DTD SVG 1.1//EN" "http://www.w3.org/Graphics/SVG/1.1/DTD/svg11.dtd">
<svg version="1.1" id="Layer_1" xmlns="http://www.w3.org/2000/svg" xmlns:xlink="http://www.w3.org/1999/xlink" x="0px" y="0px"
	 width="2000px" height="2000px" viewBox="0 0 2000 2000" enable-background="new 0 0 2000 2000" xml:space="preserve">
<path fill="#010101" d="M1892.792,1425.766c-80.691-80.692-161.384-161.385-238.568-238.568c-87.709-87.71-206.994-87.71-298.211,0
	l-10.524,10.524c-42.101,38.591-84.202,80.691-122.793,122.792c-7.018-3.507-14.034-7.017-21.052-10.524
	c-17.542-10.524-38.593-17.542-52.625-28.066c-126.303-80.692-242.076-185.942-354.346-322.77
	c-52.625-63.15-91.217-122.792-115.776-182.435c35.084-35.084,70.167-70.167,105.251-105.251l28.066-28.066
	c91.219-91.217,91.219-210.502,0-301.719c-28.066-28.066-52.625-52.625-80.692-80.692l-35.083-35.083l0,0
	c-14.032-14.035-24.559-24.559-38.591-38.594c-28.066-28.066-56.135-56.135-80.692-80.692c-87.709-87.709-206.994-87.709-298.211,0
	c-21.052,21.049-38.593,38.591-59.643,59.641c-28.066,28.069-56.135,59.643-87.709,87.709
	c-56.135,52.625-87.709,122.793-94.727,203.487c-10.524,126.3,24.559,238.568,56.133,322.768
	c70.167,189.453,178.928,368.378,329.787,550.816c189.453,224.534,413.987,399.952,673.606,526.255
	c143.843,70.167,266.635,105.251,385.921,112.266c10.524,0,17.541,0,28.066,0c105.251,0,185.942-35.083,249.093-108.759
	c28.068-31.576,56.135-56.133,84.201-87.709c14.035-14.034,31.576-31.576,45.608-45.608
	C1984.009,1636.267,1984.009,1513.475,1892.792,1425.766z M1805.083,1639.774c-14.034,14.034-31.576,31.576-45.608,45.61
	c-31.576,28.064-63.15,59.641-91.219,94.725c-45.608,49.117-98.233,70.167-178.926,66.659
	c-101.743-7.017-210.502-38.591-340.312-98.233c-242.076-119.283-456.088-284.179-635.016-494.681
	c-140.334-168.399-242.076-336.802-308.735-512.221c-38.591-108.758-56.133-189.452-49.116-270.145
	c3.508-49.116,21.05-87.709,56.133-122.792c31.576-28.067,59.643-59.643,91.219-87.709c21.049-21.049,38.591-38.591,59.643-59.643
	c21.049-21.049,42.099-31.574,63.15-31.574c21.05,0,42.101,10.524,63.15,31.574c28.066,28.069,56.133,56.135,80.692,80.694
	c14.034,14.032,24.559,24.557,38.593,38.591l35.083,35.084c28.067,28.068,52.625,52.625,80.692,80.694
	c45.608,45.608,45.608,84.2,0,129.808l-28.066,28.068c-38.593,38.591-77.185,77.183-119.285,115.776
	c-21.049,21.049-42.099,56.133-21.049,105.25c31.574,73.675,77.182,147.352,140.334,228.044
	c119.283,147.352,245.586,263.128,385.92,350.837c21.05,14.031,42.099,24.559,63.15,35.083c14.032,7.018,24.56,10.524,35.084,17.542
	c38.593,21.052,80.691,14.032,115.775-17.542c45.61-45.608,91.219-91.219,136.827-136.825l10.524-10.526
	c42.101-38.591,84.199-38.591,122.793,0c77.185,77.187,157.876,157.876,238.568,235.063
	C1847.184,1552.065,1847.184,1597.676,1805.083,1639.774z"/>
</svg>
