<?xml version="1.0" encoding="utf-8"?>
<!-- Generator: Adobe Illustrator 16.0.0, SVG Export Plug-In . SVG Version: 6.00 Build 0)  -->
<!DOCTYPE svg PUBLIC "-//W3C//DTD SVG 1.1//EN" "http://www.w3.org/Graphics/SVG/1.1/DTD/svg11.dtd">
<svg version="1.1" id="Layer_1" xmlns="http://www.w3.org/2000/svg" xmlns:xlink="http://www.w3.org/1999/xlink" x="0px" y="0px"
	 width="2000px" height="2000px" viewBox="0 0 2000 2000" enable-background="new 0 0 2000 2000" xml:space="preserve">
<path fill="#010101" d="M1000.961,19.777c-541.893,0-981.225,439.369-981.225,981.262c0,541.972,439.332,981.184,981.225,981.184
	c541.931,0,981.3-439.212,981.3-981.184C1982.262,459.146,1542.893,19.777,1000.961,19.777z M978.196,341.709
	c94.75,0,171.564,76.813,171.564,171.563c0,94.752-76.813,171.565-171.564,171.565c-94.751,0-171.565-76.813-171.565-171.565
	C806.631,418.522,883.444,341.709,978.196,341.709z M1285.802,1558.789H735.785v-39.525c36.502-6.594,62.448-12.207,77.873-17.073
	c15.426-4.867,28.496-11.58,39.29-20.176c10.716-8.478,19.194-21.784,25.199-39.525c6.005-17.74,9.224-45.529,9.224-83.29v-352.116
	c0-34.461-1.021-62.172-2.865-83.171c-1.846-21-8.36-37.838-19.586-50.477c-11.226-12.639-28.378-22.059-51.262-28.261
	c-22.961-6.162-55.422-11.422-97.538-15.699v-42.862l326.878-7.301h85.605v577.532c0,46.238,3.689,78.462,11.227,96.517
	c7.457,18.096,21.783,31.754,42.821,41.213c21.039,9.383,55.383,17.586,103.111,24.65v39.564H1285.802z"/>
</svg>
