<?xml version="1.0" encoding="utf-8"?>
<!-- Generator: Adobe Illustrator 16.0.0, SVG Export Plug-In . SVG Version: 6.00 Build 0)  -->
<!DOCTYPE svg PUBLIC "-//W3C//DTD SVG 1.1//EN" "http://www.w3.org/Graphics/SVG/1.1/DTD/svg11.dtd">
<svg version="1.1" id="Layer_1" xmlns="http://www.w3.org/2000/svg" xmlns:xlink="http://www.w3.org/1999/xlink" x="0px" y="0px"
	 width="2000px" height="2000px" viewBox="0 0 2000 2000" enable-background="new 0 0 2000 2000" xml:space="preserve">
<path d="M1975.814,395.248c-71.711,31.859-148.893,53.304-229.899,63.066c82.667-49.553,145.93-128.051,176.055-221.488
	c-77.415,45.852-163.181,79.149-254.307,97.077c-73.026-77.846-177.137-126.391-292.203-126.391
	c-221.193,0-400.47,179.215-400.47,400.359c0,31.331,3.578,61.947,10.366,91.249C652.6,682.386,357.421,523.065,160.044,280.833
	c-34.367,59.021-54.139,127.817-54.139,201.25c0,138.945,70.641,261.401,178.083,333.235
	c-65.636-2.029-127.338-20.08-181.354-50.094v5.127c0,193.921,138.048,355.799,321.013,392.49
	c-33.409,9.295-68.784,14.054-105.353,14.054c-25.847,0-50.869-2.385-75.289-7.144c50.869,159.135,198.815,274.928,373.861,278.025
	c-136.99,107.443-309.479,171.284-497.142,171.284c-32.228,0-64.087-1.672-95.54-5.483
	c177.248,113.64,387.67,179.879,613.819,179.879c736.508,0,1139.242-610.131,1139.242-1139.131c0-17.448-0.357-34.663-1.193-51.815
	C1854.317,545.985,1922.216,475.529,1975.814,395.248"/>
</svg>
